<svg width="37" height="37" viewBox="0 0 37 37" fill="none" xmlns="http://www.w3.org/2000/svg">
<path d="M19.6359 23.4513L19.6377 23.4523C20.5149 23.9206 21.3788 24.2461 22.2949 24.2746C22.313 24.2747 22.3312 24.2751 22.3445 24.2753C22.3478 24.2754 22.3508 24.2754 22.3534 24.2755C22.3714 24.2758 22.3822 24.2759 22.3912 24.2757C22.4019 24.2754 22.4064 24.2748 22.4076 24.2746L22.4076 24.2746L22.4516 24.2635L22.4969 24.2605C22.7827 24.2415 22.995 24.1747 23.1527 24.0667C23.3038 23.9632 23.4436 23.7955 23.5428 23.5003C23.6561 23.1559 23.793 22.8059 23.9234 22.4729C23.9814 22.3246 24.038 22.1798 24.0907 22.0403C24.1033 22.0057 24.1123 21.9783 24.1186 21.9567C24.1028 21.9456 24.0828 21.9321 24.0573 21.9161L24.0546 21.9144C23.6179 21.6364 23.181 21.3627 22.7413 21.0872C22.4607 20.9114 22.1789 20.7349 21.8953 20.5561C21.8745 20.543 21.8554 20.5314 21.8381 20.5211C21.8261 20.5411 21.8131 20.5637 21.7988 20.5892L21.7985 20.5899C21.3578 21.3765 20.6773 21.896 19.9029 22.0572C19.1255 22.219 18.3066 22.0082 17.622 21.4357C17.6219 21.4357 17.6219 21.4356 17.6219 21.4356L17.9426 21.0521C17.5882 20.7558 17.2337 20.4443 16.8931 20.1252C15.6837 18.9933 14.5925 17.7322 13.6334 16.3419L19.6359 23.4513ZM19.6359 23.4513C17.5695 22.3586 15.8247 20.7747 14.2605 18.9008C12.9851 17.3726 11.909 15.7282 11.2118 13.8233C10.9271 13.038 10.7246 12.2843 10.755 11.5098C10.7667 11.2773 10.8134 11.036 10.8819 10.7975L10.8819 10.7975L10.8831 10.7935C10.9471 10.5636 11.0631 10.4257 11.2329 10.3445C11.5095 10.216 11.788 10.0874 12.0671 9.95858L12.0673 9.9585C12.3096 9.84661 12.5525 9.73451 12.7943 9.62235C13.246 10.4651 13.6964 11.3129 14.1339 12.1601L14.1285 12.1634C13.4949 12.5541 13.0019 13.1226 12.7829 13.9225C12.5163 14.8857 12.6541 15.8069 13.2218 16.6259M19.6359 23.4513L13.2218 16.6259M13.2218 16.6259C14.2014 18.0458 15.3161 19.334 16.5513 20.4901L13.2218 16.6259Z" fill="#94004A" stroke="#94004A"/>
<path d="M21.9609 9.57812L10.9992 27.7057" stroke="#94004A" stroke-width="2" stroke-linecap="round"/>
<path d="M22.3144 26.1265C21.1259 26.1038 20.0277 25.7163 18.9713 25.1693C16.629 23.9538 14.6689 22.1913 12.9383 20.1173C11.5551 18.4612 10.3805 16.6531 9.60207 14.5639C9.22674 13.5535 8.96263 12.5203 9.00433 11.4188C9.01823 11.0541 9.07383 10.6819 9.17114 10.3324C9.37965 9.58789 9.78973 8.99532 10.457 8.67625C10.5355 8.63864 10.614 8.60092 10.6925 8.56318C11.2328 8.30356 11.7744 8.0433 12.3266 7.81779C13.0425 7.5291 13.814 7.81779 14.2102 8.53191C14.7245 9.45874 15.2319 10.4008 15.7115 11.358C16.1216 12.1785 15.8714 13.1661 15.1555 13.6827C15.1311 13.7017 15.1051 13.7188 15.079 13.7358C15.053 13.7529 15.0269 13.77 15.0026 13.789C14.3423 14.2221 14.2172 14.9286 14.6828 15.5895C15.8436 17.2381 17.178 18.6967 18.6863 19.9578C19.2771 20.4516 19.9443 20.3148 20.3196 19.6083C20.7089 18.879 21.2719 18.522 22.0503 18.6359C22.2588 18.6663 22.4673 18.7651 22.655 18.8714C23.4473 19.3576 24.2397 19.8514 25.0251 20.3604C25.8174 20.8694 26.0885 21.7203 25.7549 22.6471C25.6568 22.9251 25.5511 23.199 25.4457 23.4719C25.3495 23.7211 25.2537 23.9695 25.1641 24.2197C24.6845 25.5264 23.7393 26.0582 22.516 26.1265H22.3144ZM22.2866 24.7591C22.3119 24.7591 22.3378 24.7599 22.3641 24.7607C22.4174 24.7624 22.4717 24.7642 22.5229 24.7591C23.218 24.7059 23.7532 24.4248 24.0103 23.6575C24.1019 23.379 24.2095 23.1054 24.3173 22.8311C24.3977 22.6267 24.4782 22.4218 24.5525 22.2141C24.6915 21.8342 24.6498 21.7051 24.3161 21.4924C23.5933 21.0366 22.8705 20.5807 22.1546 20.1325C21.7306 19.8666 21.6055 19.897 21.3553 20.3452C20.5977 21.6975 19.0894 22.009 17.9356 21.0518C17.5742 20.7555 17.2267 20.444 16.8861 20.1249C15.6768 18.993 14.5855 17.7319 13.6264 16.3416C13.1468 15.6503 13.0356 14.883 13.258 14.0549C13.4387 13.394 13.8349 12.923 14.384 12.5887C14.655 12.4216 14.7245 12.2164 14.5855 11.9581C14.1268 11.0693 13.6542 10.1805 13.1815 9.2992C13.0703 9.09408 12.9035 9.01811 12.6881 9.11687C12.1251 9.37514 11.5692 9.63341 11.0132 9.89168L11.013 9.89177C10.7002 10.0361 10.4917 10.302 10.3944 10.6591C10.3249 10.9326 10.2624 11.2136 10.2485 11.4871C10.2137 12.3684 10.4431 13.1889 10.735 13.9941C11.4578 15.9618 12.5699 17.6635 13.8696 19.2209C15.4613 21.1277 17.2545 22.7535 19.3952 23.893C20.3057 24.364 21.258 24.7287 22.2866 24.7591Z" fill="#94004A"/>
<path d="M22.3144 26.1265C21.1259 26.1038 20.0277 25.7163 18.9713 25.1693C16.629 23.9538 14.6689 22.1913 12.9383 20.1173C11.5551 18.4612 10.3805 16.6531 9.60207 14.5639C9.22674 13.5535 8.96263 12.5203 9.00433 11.4188C9.01823 11.0541 9.07383 10.6819 9.17114 10.3324C9.37965 9.58789 9.78973 8.99532 10.457 8.67625C10.5355 8.63864 10.614 8.60092 10.6925 8.56318C11.2328 8.30356 11.7744 8.0433 12.3266 7.81779C13.0425 7.5291 13.814 7.81779 14.2102 8.53191C14.7245 9.45874 15.2319 10.4008 15.7115 11.358C16.1216 12.1785 15.8714 13.1661 15.1555 13.6827C15.1311 13.7017 15.1051 13.7188 15.079 13.7358C15.053 13.7529 15.0269 13.77 15.0026 13.789C14.3423 14.2221 14.2172 14.9286 14.6828 15.5895C15.8436 17.2381 17.178 18.6967 18.6863 19.9578C19.2771 20.4516 19.9443 20.3148 20.3196 19.6083C20.7089 18.879 21.2719 18.522 22.0503 18.6359C22.2588 18.6663 22.4673 18.7651 22.655 18.8714C23.4473 19.3576 24.2397 19.8514 25.0251 20.3604C25.8174 20.8694 26.0885 21.7203 25.7549 22.6471C25.6568 22.9251 25.5511 23.199 25.4457 23.4719C25.3495 23.7211 25.2537 23.9695 25.1641 24.2197C24.6845 25.5264 23.7393 26.0582 22.516 26.1265H22.3144ZM22.2866 24.7591C22.3119 24.7591 22.3378 24.7599 22.3641 24.7607C22.4174 24.7624 22.4717 24.7642 22.5229 24.7591C23.218 24.7059 23.7532 24.4248 24.0103 23.6575C24.1019 23.379 24.2095 23.1054 24.3173 22.8311C24.3977 22.6267 24.4782 22.4218 24.5525 22.2141C24.6915 21.8342 24.6498 21.7051 24.3161 21.4924C23.5933 21.0366 22.8705 20.5807 22.1546 20.1325C21.7306 19.8666 21.6055 19.897 21.3553 20.3452C20.5977 21.6975 19.0894 22.009 17.9356 21.0518C17.5742 20.7555 17.2267 20.444 16.8861 20.1249C15.6768 18.993 14.5855 17.7319 13.6264 16.3416C13.1468 15.6503 13.0356 14.883 13.258 14.0549C13.4387 13.394 13.8349 12.923 14.384 12.5887C14.655 12.4216 14.7245 12.2164 14.5855 11.9581C14.1268 11.0693 13.6542 10.1805 13.1815 9.2992C13.0703 9.09408 12.9035 9.01811 12.6881 9.11687C12.1251 9.37514 11.5692 9.63341 11.0132 9.89168L11.013 9.89177C10.7002 10.0361 10.4917 10.302 10.3944 10.6591C10.3249 10.9326 10.2624 11.2136 10.2485 11.4871C10.2137 12.3684 10.4431 13.1889 10.735 13.9941C11.4578 15.9618 12.5699 17.6635 13.8696 19.2209C15.4613 21.1277 17.2545 22.7535 19.3952 23.893C20.3057 24.364 21.258 24.7287 22.2866 24.7591Z" stroke="#94004A"/>
<circle opacity="0.1" cx="18.0511" cy="18.0511" r="18.0511" fill="#94004A"/>
</svg>
