<svg width="37" height="37" viewBox="0 0 37 37" fill="none" xmlns="http://www.w3.org/2000/svg">
<path d="M20.8505 9.1625C24.0118 9.22312 26.875 11.9511 27.3603 15.3534C27.4158 15.7551 27.4504 16.1567 27.4643 16.5659C27.4782 17.0205 27.2355 17.3236 26.8681 17.3312C26.4937 17.3464 26.2303 17.0433 26.2234 16.581C26.1748 14.5957 25.433 12.9892 24.0049 11.7692C23.0551 10.9584 21.9597 10.5568 20.7603 10.5189C20.6356 10.5113 20.4969 10.5037 20.379 10.4583C20.1087 10.3522 19.9492 10.0491 19.9908 9.7384C20.0255 9.44287 20.2473 9.20039 20.5246 9.1625C20.6286 9.14734 20.7395 9.1625 20.8505 9.1625Z" fill="#94004A"/>
<path d="M20.7671 12.3293C22.8053 12.3823 24.5316 14.2919 24.5663 16.5197C24.5732 17.0123 24.3583 17.3078 23.9839 17.3306C23.6026 17.3533 23.3461 17.0578 23.3184 16.5652C23.249 15.0876 22.3547 13.9812 21.0306 13.7236C20.9404 13.7084 20.8434 13.7009 20.7463 13.6933C20.2472 13.6705 19.9698 13.4129 19.9837 12.9734C19.9906 12.5491 20.2749 12.3141 20.7671 12.3293Z" fill="#94004A"/>
<path d="M24.1496 26.0251C23.1236 25.9948 22.1807 25.6311 21.2725 25.1461C19.1373 24.0171 17.3486 22.3879 15.761 20.4859C14.4646 18.9325 13.3553 17.2426 12.6343 15.2724C12.3432 14.4692 12.1144 13.6433 12.149 12.7718C12.1629 12.4914 12.2184 12.2111 12.2946 11.9459C12.3917 11.5973 12.5927 11.3321 12.9117 11.1805C13.4663 10.9229 14.0278 10.6652 14.5824 10.4076C14.7904 10.3091 14.9637 10.3849 15.0747 10.5895C15.5461 11.4685 16.0175 12.3551 16.4751 13.2416C16.6137 13.5069 16.5444 13.7115 16.274 13.8706C15.7333 14.204 15.3312 14.6738 15.1509 15.3331C14.9221 16.159 15.04 16.9244 15.5184 17.6139C16.4751 19.0007 17.5635 20.2585 18.7698 21.3876C19.1095 21.7059 19.4631 22.0166 19.8167 22.3121C20.9675 23.2745 22.4719 22.9562 23.2276 21.6074C23.4772 21.1603 23.602 21.13 24.0248 21.3952C24.7459 21.8499 25.4669 22.2969 26.1809 22.7516C26.5068 22.9562 26.5553 23.0926 26.4166 23.4715C26.2364 23.9489 26.0353 24.4263 25.8759 24.9112C25.6194 25.6766 25.0786 25.9645 24.3923 26.01C24.3022 26.0327 24.2259 26.0251 24.1496 26.0251Z" fill="#94004A"/>
<path d="M24.1784 27.3726C22.9929 27.3499 21.8975 26.9634 20.8437 26.4178C18.5074 25.2054 16.5523 23.4474 14.8261 21.3787C13.4465 19.7268 12.2748 17.9233 11.4984 15.8394C11.124 14.8316 10.8605 13.801 10.9021 12.7023C10.916 12.3386 10.9715 11.9673 11.0685 11.6187C11.2765 10.8761 11.6855 10.285 12.3511 9.96675C12.9681 9.67122 13.5851 9.36812 14.216 9.11047C14.9301 8.82252 15.6996 9.11047 16.0948 9.82277C16.6078 10.7472 17.1139 11.6869 17.5922 12.6417C18.0013 13.46 17.7517 14.4451 17.0376 14.9604C16.9891 14.9983 16.9336 15.0286 16.8851 15.0665C16.2265 15.4984 16.1017 16.2032 16.5662 16.8624C17.724 18.5068 19.0551 19.9617 20.5595 21.2196C21.1487 21.7121 21.8143 21.5757 22.1887 20.871C22.5769 20.1435 23.1384 19.7874 23.9149 19.9011C24.1229 19.9314 24.3309 20.0299 24.5181 20.136C25.3084 20.6209 26.0987 21.1135 26.8821 21.6212C27.6725 22.1289 27.9428 22.9776 27.6101 23.9021C27.4229 24.4325 27.208 24.9478 27.0208 25.4706C26.5424 26.774 25.5996 27.3044 24.3794 27.3726C24.2962 27.3726 24.2338 27.3726 24.1784 27.3726ZM24.1506 26.0086C24.2269 26.0086 24.3101 26.0162 24.3863 26.0086C25.0796 25.9556 25.6134 25.6752 25.8699 24.9099C26.0294 24.4249 26.2374 23.9551 26.4107 23.4701C26.5494 23.0913 26.5078 22.9624 26.175 22.7503C25.454 22.2956 24.733 21.8409 24.0189 21.3939C23.596 21.1286 23.4712 21.1589 23.2216 21.606C22.466 22.9549 20.9616 23.2655 19.8107 22.3108C19.4502 22.0152 19.1036 21.7045 18.7639 21.3863C17.5576 20.2572 16.4691 18.9993 15.5124 17.6126C15.0341 16.923 14.9231 16.1577 15.145 15.3317C15.3252 14.6725 15.7204 14.2027 16.2681 13.8692C16.5385 13.7025 16.6078 13.4979 16.4691 13.2403C16.0116 12.3537 15.5402 11.4671 15.0687 10.5881C14.9578 10.3835 14.7914 10.3077 14.5765 10.4063C14.0149 10.6639 13.4603 10.9215 12.9057 11.1792C12.5937 11.3232 12.3858 11.5884 12.2887 11.9445C12.2194 12.2173 12.157 12.4977 12.1431 12.7705C12.1084 13.6495 12.3372 14.4679 12.6284 15.2711C13.3494 17.2337 14.4586 18.9311 15.7551 20.4845C17.3427 22.3865 19.1313 24.0081 21.2666 25.1448C22.1748 25.6146 23.1246 25.9783 24.1506 26.0086Z" fill="#94004A"/>
<circle opacity="0.1" cx="18.9489" cy="18.0511" r="18.0511" fill="#94004A"/>
</svg>
