<svg width="17" height="18" viewBox="0 0 17 18" fill="none" xmlns="http://www.w3.org/2000/svg">
<path d="M1 5.4209H16" stroke="#FB555B" stroke-width="2" stroke-linecap="round"/>
<path d="M13.8888 5.4209H3.10604L3.02887 6.81608C2.88102 9.48919 3.00664 12.1704 3.40378 14.818C3.57696 15.9725 4.56875 16.8266 5.73621 16.8266H11.2586C12.4261 16.8266 13.4178 15.9725 13.591 14.818C13.9882 12.1704 14.1138 9.48918 13.9659 6.81608L13.8888 5.4209Z" fill="#FFE8E3" stroke="#FB555B" stroke-width="2" stroke-linecap="round" stroke-linejoin="round"/>
<path d="M5.5022 5.4209V4.82186C5.5022 4.02749 5.81776 3.26564 6.37947 2.70393C6.94118 2.14223 7.70302 1.82666 8.4974 1.82666C9.29178 1.82666 10.0536 2.14223 10.6153 2.70393C11.177 3.26564 11.4926 4.02749 11.4926 4.82186V5.4209" stroke="#FB555B" stroke-width="2" stroke-linecap="round" stroke-linejoin="round"/>
<path d="M6.70044 8.62915V13.5946" stroke="#FB555B" stroke-width="2" stroke-linecap="round" stroke-linejoin="round"/>
<path d="M10.2948 8.62915V13.5946" stroke="#FB555B" stroke-width="2" stroke-linecap="round" stroke-linejoin="round"/>
</svg>
