<svg width="16" height="16" viewBox="0 0 16 16" fill="none" xmlns="http://www.w3.org/2000/svg">
<circle cx="8" cy="8" r="8" fill="#2F465D"/>
<circle cx="7.99967" cy="8.0026" r="6.66667" fill="white"/>
<g clip-path="url(#clip0_928_17)">
<path d="M9.11571 13.3538C8.29388 13.3538 7.48882 13.3538 6.66699 13.3538C6.66699 11.1239 6.66699 8.90328 6.66699 6.66406C7.48323 6.66406 8.29388 6.66406 9.11571 6.66406C9.11571 8.88932 9.11571 11.1099 9.11571 13.3538Z" fill="#2F465D"/>
<path d="M8.97535 4.12486C8.97658 5.1766 8.30082 5.84823 7.52252 5.61037C7.02943 5.45745 6.70021 4.92913 6.6704 4.23558C6.64056 3.51929 6.97811 2.89922 7.49014 2.72239C8.19539 2.4771 8.89677 3.05047 8.96545 3.93158" fill="#2F465D"/>
</g>
<defs>
<clipPath id="clip0_928_17">
<rect width="4" height="13.3333" fill="white" transform="translate(6.66699 2.66406)"/>
</clipPath>
</defs>
</svg>
