<svg width="200" height="24" viewBox="0 0 200 24" fill="none" xmlns="http://www.w3.org/2000/svg">
<path d="M73.3775 19C72.7775 19 72.4775 18.7 72.4775 18.1V12.12L68.2175 5.28C67.8375 4.66 68.0775 4.2 68.8175 4.2H71.1975C71.6575 4.2 72.0175 4.4 72.2775 4.8L74.3575 8.14L76.4375 4.8C76.6975 4.4 77.0575 4.2 77.5175 4.2H79.8975C80.6375 4.2 80.8975 4.66 80.4975 5.28L76.2575 12.12V18.1C76.2575 18.7 75.9575 19 75.3575 19H73.3775ZM88.8573 19.36C86.6973 19.36 84.7773 18.48 83.3573 17.08C81.9373 15.68 81.0773 13.74 81.0773 11.6C81.0773 9.44 81.9373 7.52 83.3573 6.1C84.7773 4.68 86.6973 3.82 88.8573 3.82C90.9973 3.82 92.9373 4.68 94.3573 6.1C95.7773 7.52 96.6373 9.44 96.6373 11.6C96.6373 13.74 95.7773 15.68 94.3573 17.08C92.9373 18.48 90.9973 19.36 88.8573 19.36ZM88.8573 7.6C87.7573 7.6 86.7573 8.06 86.0373 8.78C85.3173 9.5 84.8573 10.5 84.8573 11.6C84.8573 12.7 85.3173 13.7 86.0373 14.42C86.7573 15.14 87.7573 15.58 88.8573 15.58C89.9573 15.58 90.9573 15.14 91.6773 14.42C92.3973 13.7 92.8373 12.7 92.8373 11.6C92.8373 10.5 92.3973 9.5 91.6773 8.78C90.9573 8.06 89.9573 7.6 88.8573 7.6ZM111.866 4.2C112.466 4.2 112.766 4.5 112.766 5.1V12.06C112.746 13.9 112.066 15.74 110.886 17.1C109.686 18.46 107.986 19.36 105.906 19.36C103.906 19.36 102.206 18.54 101.006 17.2C99.8061 15.86 99.1061 14.04 99.0461 12.06V5.1C99.0461 4.5 99.3461 4.2 99.9461 4.2H101.926C102.526 4.2 102.826 4.5 102.826 5.1V12.06C102.826 13.1 103.166 14 103.726 14.64C104.286 15.3 105.046 15.68 105.906 15.68C106.726 15.68 107.506 15.3 108.066 14.64C108.626 14 108.966 13.1 108.966 12.06V5.1C108.966 4.5 109.266 4.2 109.866 4.2H111.866ZM127.6 9.06C127.6 10.52 127.02 12.02 125.92 12.88C125.76 13.02 125.62 13.1 125.5 13.16C125.36 13.22 125.28 13.24 125.26 13.26L127.26 17.96C127.52 18.58 127.26 19 126.56 19H124.36C123.86 19 123.52 18.76 123.32 18.3L121.56 13.72H119.74V18.1C119.74 18.7 119.44 19 118.84 19H116.86C116.26 19 115.96 18.7 115.96 18.1V5.1C115.96 4.5 116.26 4.2 116.86 4.2H122.94C124.22 4.2 125.28 4.58 126.14 5.32C126.46 5.62 126.84 6.1 127.12 6.72C127.4 7.36 127.6 8.16 127.6 9.06ZM123.94 9.06C123.94 8.36 123.54 7.84 122.74 7.84H119.74V10.32H122.6C123.3 10.32 123.94 9.84 123.94 9.06Z" fill="#222222"/>
<path d="M144.462 19.34C142.322 19.34 140.382 18.46 138.982 17.06C137.582 15.66 136.702 13.74 136.702 11.6C136.702 9.46 137.582 7.5 138.982 6.1C140.382 4.7 142.322 3.84 144.462 3.84C146.542 3.84 148.462 4.62 149.902 6.06C150.322 6.52 150.262 6.96 149.802 7.34L148.222 8.58C147.762 8.96 147.422 8.9 146.962 8.52C146.242 7.92 145.402 7.62 144.462 7.62C143.362 7.62 142.362 8.06 141.642 8.78C140.922 9.5 140.482 10.5 140.482 11.6C140.482 12.7 140.922 13.7 141.642 14.46C142.362 15.22 143.362 15.72 144.462 15.72C145.322 15.72 145.962 15.54 146.442 15.3C146.902 15.08 147.182 14.8 147.342 14.62V13.66H144.882C144.282 13.66 143.982 13.36 143.982 12.76V11.52C143.982 10.92 144.282 10.62 144.882 10.62H150.222C150.822 10.62 151.122 10.92 151.122 11.52V15.14C151.122 15.56 151.042 15.88 150.882 16.14C149.602 18.08 147.502 19.34 144.462 19.34ZM165.999 9.06C165.999 10.52 165.419 12.02 164.319 12.88C164.159 13.02 164.019 13.1 163.899 13.16C163.759 13.22 163.679 13.24 163.659 13.26L165.659 17.96C165.919 18.58 165.659 19 164.959 19H162.759C162.259 19 161.919 18.76 161.719 18.3L159.959 13.72H158.139V18.1C158.139 18.7 157.839 19 157.239 19H155.259C154.659 19 154.359 18.7 154.359 18.1V5.1C154.359 4.5 154.659 4.2 155.259 4.2H161.339C162.619 4.2 163.679 4.58 164.539 5.32C164.859 5.62 165.239 6.1 165.519 6.72C165.799 7.36 165.999 8.16 165.999 9.06ZM162.339 9.06C162.339 8.36 161.939 7.84 161.139 7.84H158.139V10.32H160.999C161.699 10.32 162.339 9.84 162.339 9.06ZM181.475 4.2C182.075 4.2 182.375 4.5 182.375 5.1V12.06C182.355 13.9 181.675 15.74 180.495 17.1C179.295 18.46 177.595 19.36 175.515 19.36C173.515 19.36 171.815 18.54 170.615 17.2C169.415 15.86 168.715 14.04 168.655 12.06V5.1C168.655 4.5 168.955 4.2 169.555 4.2H171.535C172.135 4.2 172.435 4.5 172.435 5.1V12.06C172.435 13.1 172.775 14 173.335 14.64C173.895 15.3 174.655 15.68 175.515 15.68C176.335 15.68 177.115 15.3 177.675 14.64C178.235 14 178.575 13.1 178.575 12.06V5.1C178.575 4.5 178.875 4.2 179.475 4.2H181.475ZM186.47 19C185.87 19 185.57 18.7 185.57 18.1V5.1C185.57 4.5 185.87 4.2 186.47 4.2H192.03C193.29 4.2 194.37 4.58 195.23 5.32C195.55 5.62 195.93 5.96 196.21 6.48C196.49 7 196.69 7.68 196.69 8.58V8.6C196.69 9.22 196.49 9.8 196.23 10.26C195.97 10.74 195.61 11.08 195.31 11.18C195.57 11.24 196.09 11.5 196.57 12.04C197.05 12.58 197.45 13.34 197.53 14.32C197.55 14.88 197.49 15.58 197.21 16.28C196.93 16.98 196.45 17.66 195.79 18.16C195.13 18.66 194.23 19 193.09 19H186.47ZM189.17 7.56V10.04H191.83C192.13 10.04 192.47 9.94 192.73 9.74C192.97 9.54 193.17 9.26 193.17 8.86C193.17 8.2 192.83 7.56 192.03 7.56H189.17ZM189.17 13.1V15.58H192.45C193.17 15.58 193.75 15.2 193.75 14.34C193.75 13.48 193.21 13.1 192.33 13.1H189.17Z" fill="#94004A"/>
<path d="M8.56 19.34C6.42 19.34 4.48 18.46 3.08 17.06C1.68 15.66 0.8 13.74 0.8 11.6C0.8 9.46 1.68 7.5 3.08 6.1C4.48 4.7 6.42 3.84 8.56 3.84C10.64 3.84 12.56 4.62 14 6.06C14.42 6.52 14.36 6.96 13.9 7.34L12.32 8.58C11.86 8.96 11.52 8.9 11.06 8.52C10.34 7.92 9.5 7.62 8.56 7.62C7.46 7.62 6.46 8.06 5.74 8.78C5.02 9.5 4.58 10.5 4.58 11.6C4.58 12.7 5.02 13.7 5.74 14.46C6.46 15.22 7.46 15.72 8.56 15.72C9.42 15.72 10.06 15.54 10.54 15.3C11 15.08 11.28 14.8 11.44 14.62V13.66H8.98C8.38 13.66 8.08 13.36 8.08 12.76V11.52C8.08 10.92 8.38 10.62 8.98 10.62H14.32C14.92 10.62 15.22 10.92 15.22 11.52V15.14C15.22 15.56 15.14 15.88 14.98 16.14C13.7 18.08 11.6 19.34 8.56 19.34ZM30.0963 9.06C30.0963 10.52 29.5163 12.02 28.4163 12.88C28.2563 13.02 28.1163 13.1 27.9963 13.16C27.8563 13.22 27.7763 13.24 27.7562 13.26L29.7563 17.96C30.0163 18.58 29.7563 19 29.0563 19H26.8563C26.3563 19 26.0163 18.76 25.8163 18.3L24.0563 13.72H22.2363V18.1C22.2363 18.7 21.9363 19 21.3363 19H19.3563C18.7563 19 18.4563 18.7 18.4563 18.1V5.1C18.4563 4.5 18.7563 4.2 19.3563 4.2H25.4363C26.7163 4.2 27.7763 4.58 28.6363 5.32C28.9562 5.62 29.3363 6.1 29.6163 6.72C29.8963 7.36 30.0963 8.16 30.0963 9.06ZM26.4363 9.06C26.4363 8.36 26.0363 7.84 25.2363 7.84H22.2363V10.32H25.0963C25.7963 10.32 26.4363 9.84 26.4363 9.06ZM39.917 4.2C40.417 4.2 40.777 4.44 40.957 4.92L45.517 17.96C45.737 18.6 45.477 19 44.777 19H42.637C42.117 19 41.777 18.76 41.617 18.26L40.997 16.44H36.597L35.977 18.26C35.797 18.76 35.457 19 34.937 19H32.777C32.077 19 31.817 18.6 32.037 17.96L36.617 4.92C36.797 4.44 37.137 4.2 37.637 4.2H39.917ZM40.157 13.16L38.777 9.06L37.517 13.16H40.157ZM49.1414 19C48.5414 19 48.2414 18.7 48.2414 18.1V5.1C48.2414 4.5 48.5414 4.2 49.1414 4.2H54.7014C55.9614 4.2 57.0414 4.58 57.9014 5.32C58.2214 5.62 58.6014 5.96 58.8814 6.48C59.1614 7 59.3614 7.68 59.3614 8.58V8.6C59.3614 9.22 59.1614 9.8 58.9014 10.26C58.6414 10.74 58.2814 11.08 57.9814 11.18C58.2414 11.24 58.7614 11.5 59.2414 12.04C59.7214 12.58 60.1214 13.34 60.2014 14.32C60.2214 14.88 60.1614 15.58 59.8814 16.28C59.6014 16.98 59.1214 17.66 58.4614 18.16C57.8014 18.66 56.9014 19 55.7614 19H49.1414ZM51.8414 7.56V10.04H54.5014C54.8014 10.04 55.1414 9.94 55.4014 9.74C55.6414 9.54 55.8414 9.26 55.8414 8.86C55.8414 8.2 55.5014 7.56 54.7014 7.56H51.8414ZM51.8414 13.1V15.58H55.1214C55.8414 15.58 56.4214 15.2 56.4214 14.34C56.4214 13.48 55.8814 13.1 55.0014 13.1H51.8414Z" fill="#F7941F"/>
</svg>
