<svg width="24" height="23" viewBox="0 0 24 23" fill="none" xmlns="http://www.w3.org/2000/svg">
<g clip-path="url(#clip0_515_277)">
<path d="M11.4978 19.9974C9.67476 19.9974 7.84589 19.9974 6.02282 19.9974C3.77593 19.9974 1.9877 18.5225 1.56967 16.3159C1.52322 16.0604 1.50581 15.7991 1.50581 15.5377C1.5 11.8504 1.5 8.16301 1.5 4.47565C1.5 1.96708 3.46241 0.010162 5.96477 0.00435516C9.65734 -0.00145172 13.3441 -0.00145172 17.0309 0.00435516C19.539 0.010162 21.4956 1.96708 21.4956 4.47565C21.5015 8.16301 21.5015 11.8504 21.4956 15.5377C21.4898 18.0289 19.5332 19.9916 17.0425 19.9974C15.1962 20.0032 13.3499 19.9974 11.4978 19.9974ZM11.4978 4.34209C9.70959 4.34209 7.92137 4.34209 6.13314 4.34209C6.01702 4.34209 5.9009 4.3479 5.79059 4.38274C5.37837 4.51049 5.13452 4.91697 5.19838 5.35249C5.26225 5.77639 5.62802 6.08415 6.08669 6.08415C9.69798 6.08415 13.3151 6.08415 16.9264 6.08415C16.9902 6.08415 17.0599 6.08415 17.118 6.07254C17.5476 5.98543 17.8611 5.58476 17.8263 5.16086C17.7857 4.6847 17.4315 4.3479 16.9496 4.3479C15.1323 4.34209 13.3151 4.34209 11.4978 4.34209ZM9.93603 10.8748C11.2249 10.8748 12.5139 10.8748 13.8028 10.8748C13.9015 10.8748 14.006 10.8748 14.1047 10.8458C14.5285 10.7238 14.7782 10.3174 14.7143 9.87023C14.6563 9.45214 14.2905 9.13857 13.8492 9.13857C11.2714 9.13857 8.69356 9.13857 6.10991 9.13857C5.58738 9.13857 5.19838 9.51601 5.19258 10.0096C5.19258 10.509 5.57577 10.8748 6.10411 10.8748C7.38722 10.8748 8.66453 10.8748 9.93603 10.8748ZM8.32778 13.935V13.9292C7.50914 13.9292 6.69051 13.9292 5.87187 13.9292C5.37256 13.9292 4.97776 14.3009 4.97195 14.7945C4.96614 15.2997 5.35514 15.6887 5.86606 15.6887C7.48011 15.6887 9.09416 15.6829 10.714 15.6829C11.2656 15.6829 11.6488 15.3287 11.6488 14.8177C11.6488 14.3067 11.2714 13.9467 10.7198 13.9467C9.92441 13.935 9.12319 13.935 8.32778 13.935Z" fill="#94004A"/>
</g>
<defs>
<clipPath id="clip0_515_277">
<rect width="23" height="23" fill="white" transform="translate(0.5)"/>
</clipPath>
</defs>
</svg>
