<svg width="23" height="23" viewBox="0 0 23 23" fill="none" xmlns="http://www.w3.org/2000/svg">
<g clip-path="url(#clip0_509_13)">
<path d="M10.9978 19.9974C9.17476 19.9974 7.34589 19.9974 5.52282 19.9974C3.27593 19.9974 1.4877 18.5225 1.06967 16.3159C1.02322 16.0604 1.00581 15.7991 1.00581 15.5377C1 11.8504 1 8.16301 1 4.47565C1 1.96708 2.96241 0.010162 5.46477 0.00435516C9.15734 -0.00145172 12.8441 -0.00145172 16.5309 0.00435516C19.039 0.010162 20.9956 1.96708 20.9956 4.47565C21.0015 8.16301 21.0015 11.8504 20.9956 15.5377C20.9898 18.0289 19.0332 19.9916 16.5425 19.9974C14.6962 20.0032 12.8499 19.9974 10.9978 19.9974ZM10.9978 4.34209C9.20959 4.34209 7.42137 4.34209 5.63314 4.34209C5.51702 4.34209 5.4009 4.3479 5.29059 4.38274C4.87837 4.51049 4.63452 4.91697 4.69838 5.35249C4.76225 5.77639 5.12802 6.08415 5.58669 6.08415C9.19798 6.08415 12.8151 6.08415 16.4264 6.08415C16.4902 6.08415 16.5599 6.08415 16.618 6.07254C17.0476 5.98543 17.3611 5.58476 17.3263 5.16086C17.2857 4.6847 16.9315 4.3479 16.4496 4.3479C14.6323 4.34209 12.8151 4.34209 10.9978 4.34209ZM9.43603 10.8748C10.7249 10.8748 12.0139 10.8748 13.3028 10.8748C13.4015 10.8748 13.506 10.8748 13.6047 10.8458C14.0285 10.7238 14.2782 10.3174 14.2143 9.87023C14.1563 9.45214 13.7905 9.13857 13.3492 9.13857C10.7714 9.13857 8.19356 9.13857 5.60991 9.13857C5.08738 9.13857 4.69838 9.51601 4.69258 10.0096C4.69258 10.509 5.07577 10.8748 5.60411 10.8748C6.88722 10.8748 8.16453 10.8748 9.43603 10.8748ZM7.82778 13.935V13.9292C7.00914 13.9292 6.19051 13.9292 5.37187 13.9292C4.87256 13.9292 4.47776 14.3009 4.47195 14.7945C4.46614 15.2997 4.85514 15.6887 5.36606 15.6887C6.98011 15.6887 8.59416 15.6829 10.214 15.6829C10.7656 15.6829 11.1488 15.3287 11.1488 14.8177C11.1488 14.3067 10.7714 13.9467 10.2198 13.9467C9.42441 13.935 8.62319 13.935 7.82778 13.935Z" fill="#BCBCBC"/>
</g>
<defs>
<clipPath id="clip0_509_13">
<rect width="23" height="23" fill="white"/>
</clipPath>
</defs>
</svg>
