<svg width="21" height="20" viewBox="0 0 21 20" fill="none" xmlns="http://www.w3.org/2000/svg">
<path d="M19.135 20C18.9784 19.9267 18.8023 19.8778 18.6604 19.78C18.2984 19.5355 18.1565 19.1687 18.1565 18.7384C18.1565 16.89 18.1565 15.0416 18.1565 13.1932C18.1565 13.115 18.1565 13.0367 18.1565 12.9291C18.088 12.9291 18.0293 12.9291 17.9657 12.9291C17.4716 12.9291 16.9774 12.9291 16.4833 12.9291C16.0479 12.9291 15.8131 12.6993 15.8131 12.269C15.8131 10.401 15.8033 8.53305 15.8131 6.66508C15.8228 4.19564 16.8796 2.23476 18.7729 0.699312C18.9784 0.533053 19.1986 0.376574 19.4138 0.220095C19.908 -0.131984 20.1819 -0.0781939 20.4951 0.430364C20.4951 6.62596 20.4951 12.8216 20.4951 19.022C20.451 19.1296 20.4168 19.2421 20.3679 19.3448C20.1966 19.7066 19.8835 19.8876 19.5166 20C19.3943 20 19.2671 20 19.135 20Z" fill="#94004A"/>
<path d="M3.23479 20.0001C3.13694 19.9659 3.03909 19.9365 2.94614 19.8925C2.49115 19.6725 2.26121 19.3008 2.26121 18.8021C2.25632 15.7116 2.26121 12.6211 2.26121 9.53067C2.26121 9.50133 2.2661 9.4671 2.2661 9.42798C3.03909 9.42798 3.8072 9.42798 4.60465 9.42798C4.60465 9.50133 4.60465 9.57468 4.60465 9.64803C4.60465 12.6065 4.60465 15.5649 4.60465 18.5282C4.60465 19.4133 4.42853 19.6774 3.62618 20.0001C3.49408 20.0001 3.36688 20.0001 3.23479 20.0001Z" fill="#94004A"/>
<path d="M14.6438 9.62831C14.6438 10.4938 14.634 11.3594 14.6487 12.2249C14.6536 12.4743 14.727 12.7237 14.7612 12.9731C14.771 13.0366 14.771 13.1198 14.7367 13.1638C13.5185 14.6845 11.9383 15.4278 9.98625 15.242C8.14183 15.0611 6.77197 14.1075 5.8522 12.5036C5.80817 12.4254 5.77882 12.3227 5.77882 12.2298C5.77393 11.2665 5.77882 10.3031 5.77393 9.3398C5.77393 9.22244 5.80817 9.15887 5.9158 9.10019C6.98234 8.51829 7.50093 7.60386 7.53518 6.40093C7.54007 6.18088 7.54496 5.95594 7.53518 5.73589C7.53029 5.62342 7.57432 5.56474 7.66727 5.50606C8.83166 4.79702 10.089 4.55252 11.4295 4.79213C12.6868 5.01706 13.724 5.6332 14.5508 6.60631C14.6047 6.66988 14.6389 6.77745 14.6389 6.86547C14.6438 7.7799 14.6438 8.70411 14.6438 9.62831Z" fill="#94004A"/>
<path d="M4.01758 4.6797C4.41875 4.6797 4.79547 4.6797 5.19175 4.6797C5.19175 4.60146 5.19175 4.533 5.19175 4.45965C5.19175 3.2176 5.19175 1.97554 5.19175 0.733488C5.19175 0.660139 5.18686 0.591679 5.19664 0.518329C5.23578 0.220041 5.49018 -8.12206e-06 5.78862 0.00488185C6.07727 0.00977183 6.32189 0.234711 6.35613 0.523219C6.36102 0.577009 6.36103 0.625909 6.36103 0.679698C6.36103 2.57212 6.36592 4.46454 6.36103 6.36185C6.36103 7.1198 6.04302 7.71637 5.3532 8.05378C5.09879 8.17603 4.79547 8.22982 4.50682 8.2396C3.79742 8.26405 3.08803 8.24938 2.37864 8.24938C1.28275 8.24938 0.509752 7.48165 0.50486 6.3863C0.499968 4.47921 0.50486 2.57212 0.50486 0.665029C0.499968 0.264051 0.744586 -8.12206e-06 1.09684 0.00488185C1.43441 0.00977183 1.67414 0.268941 1.67414 0.655249C1.67414 1.92175 1.67414 3.19315 1.67414 4.45965C1.67414 4.52811 1.67414 4.60146 1.67414 4.6797C2.07042 4.6797 2.44224 4.6797 2.8483 4.6797C2.8483 4.61124 2.8483 4.54278 2.8483 4.47432C2.8483 3.19804 2.8483 1.92175 2.8483 0.650359C2.8483 0.176031 3.25926 -0.122257 3.66044 0.0537816C3.91484 0.166251 4.02247 0.37652 4.01758 0.650359C4.01758 1.74571 4.01758 2.83618 4.01758 3.93153C4.01758 4.17114 4.01758 4.42053 4.01758 4.6797Z" fill="#94004A"/>
<path d="M5.77393 14.4254C6.00876 14.6357 6.20935 14.8264 6.4295 14.9975C7.69173 16.0049 9.13498 16.489 10.7397 16.4303C12.6428 16.357 14.2279 15.5697 15.4706 14.1222C15.5929 13.9804 15.6761 13.9218 15.8669 14C16.043 14.0733 16.2485 14.0782 16.4393 14.0929C16.6105 14.1076 16.7866 14.0978 16.9823 14.0978C16.9823 14.5477 16.9481 14.9829 16.9921 15.4132C17.0313 15.8337 16.8649 16.1076 16.5665 16.3814C15.1037 17.7262 13.3962 18.5574 11.4197 18.7677C9.4432 18.978 7.59389 18.5477 5.88645 17.5208C5.83263 17.4865 5.77393 17.4034 5.77393 17.3447C5.77393 16.3912 5.77393 15.4279 5.77393 14.4254Z" fill="#94004A"/>
<path d="M15.5293 2.73364C15.2651 3.53559 15.0107 4.3131 14.7612 5.07593C12.5645 3.35466 10.1526 3.04659 7.54495 4.19085C7.54006 4.14195 7.53517 4.09305 7.53517 4.04415C7.53517 3.31065 7.53517 2.57227 7.53027 1.83877C7.53027 1.72141 7.56452 1.67251 7.67704 1.63828C10.2211 0.831435 12.6526 1.08082 14.9814 2.38645C15.177 2.49892 15.363 2.63095 15.5293 2.73364Z" fill="#94004A"/>
</svg>
