<svg width="20" height="20" viewBox="0 0 20 20" fill="none" xmlns="http://www.w3.org/2000/svg">
<path d="M18.635 19.9998C18.4784 19.9265 18.3023 19.8776 18.1604 19.7798C17.7984 19.5353 17.6565 19.1685 17.6565 18.7382C17.6565 16.8898 17.6565 15.0414 17.6565 13.193C17.6565 13.1147 17.6565 13.0365 17.6565 12.9289C17.588 12.9289 17.5293 12.9289 17.4657 12.9289C16.9716 12.9289 16.4774 12.9289 15.9833 12.9289C15.5479 12.9289 15.3131 12.6991 15.3131 12.2687C15.3131 10.4008 15.3033 8.53281 15.3131 6.66484C15.3228 4.1954 16.3796 2.23452 18.2729 0.699068C18.4784 0.532809 18.6986 0.37633 18.9138 0.21985C19.408 -0.132228 19.6819 -0.078438 19.9951 0.430119C19.9951 6.62572 19.9951 12.8213 19.9951 19.0218C19.951 19.1294 19.9168 19.2419 19.8679 19.3445C19.6966 19.7064 19.3835 19.8873 19.0166 19.9998C18.8943 19.9998 18.7671 19.9998 18.635 19.9998Z" fill="#BCBCBC"/>
<path d="M2.73479 19.9999C2.63694 19.9656 2.53909 19.9363 2.44614 19.8923C1.99115 19.6722 1.76121 19.3006 1.76121 18.8018C1.75632 15.7114 1.76121 12.6209 1.76121 9.53042C1.76121 9.50108 1.7661 9.46685 1.7661 9.42773C2.53909 9.42773 3.3072 9.42773 4.10465 9.42773C4.10465 9.50108 4.10465 9.57443 4.10465 9.64778C4.10465 12.6062 4.10465 15.5647 4.10465 18.528C4.10465 19.4131 3.92853 19.6771 3.12618 19.9999C2.99408 19.9999 2.86688 19.9999 2.73479 19.9999Z" fill="#BCBCBC"/>
<path d="M14.1438 9.62807C14.1438 10.4936 14.134 11.3591 14.1487 12.2246C14.1536 12.474 14.227 12.7234 14.2612 12.9728C14.271 13.0364 14.271 13.1195 14.2367 13.1635C13.0185 14.6843 11.4383 15.4276 9.48625 15.2418C7.64183 15.0608 6.27197 14.1073 5.3522 12.5034C5.30817 12.4251 5.27882 12.3224 5.27882 12.2295C5.27393 11.2662 5.27882 10.3029 5.27393 9.33956C5.27393 9.2222 5.30817 9.15863 5.4158 9.09995C6.48234 8.51804 7.00093 7.60362 7.03518 6.40068C7.04007 6.18063 7.04496 5.9557 7.03518 5.73565C7.03029 5.62318 7.07432 5.5645 7.16727 5.50582C8.33166 4.79677 9.58899 4.55227 10.9295 4.79188C12.1868 5.01682 13.224 5.63296 14.0508 6.60606C14.1047 6.66963 14.1389 6.77721 14.1389 6.86523C14.1438 7.77966 14.1438 8.70386 14.1438 9.62807Z" fill="#BCBCBC"/>
<path d="M3.51758 4.67945C3.91875 4.67945 4.29547 4.67945 4.69175 4.67945C4.69175 4.60121 4.69175 4.53275 4.69175 4.4594C4.69175 3.21735 4.69175 1.9753 4.69175 0.733244C4.69175 0.659894 4.68686 0.591435 4.69664 0.518085C4.73578 0.219797 4.99018 -0.000252263 5.28862 0.00463771C5.57727 0.00952769 5.82189 0.234467 5.85613 0.522975C5.86102 0.576765 5.86103 0.625665 5.86103 0.679454C5.86103 2.57187 5.86592 4.4643 5.86103 6.36161C5.86103 7.11955 5.54302 7.71613 4.8532 8.05354C4.59879 8.17579 4.29547 8.22958 4.00682 8.23936C3.29742 8.26381 2.58803 8.24914 1.87864 8.24914C0.782747 8.24914 0.0097523 7.48141 0.00485993 6.38606C-3.24356e-05 4.47897 0.00485993 2.57187 0.00485993 0.664784C-3.24356e-05 0.263806 0.244586 -0.000252263 0.596837 0.00463771C0.93441 0.00952769 1.17414 0.268696 1.17414 0.655004C1.17414 1.92151 1.17414 3.1929 1.17414 4.4594C1.17414 4.52786 1.17414 4.60121 1.17414 4.67945C1.57042 4.67945 1.94224 4.67945 2.3483 4.67945C2.3483 4.61099 2.3483 4.54253 2.3483 4.47407C2.3483 3.19779 2.3483 1.92151 2.3483 0.650114C2.3483 0.175787 2.75926 -0.122502 3.16044 0.0535375C3.41484 0.166007 3.52247 0.376276 3.51758 0.650114C3.51758 1.74547 3.51758 2.83593 3.51758 3.93129C3.51758 4.1709 3.51758 4.42029 3.51758 4.67945Z" fill="#BCBCBC"/>
<path d="M5.27393 14.4252C5.50876 14.6354 5.70935 14.8262 5.9295 14.9973C7.19173 16.0046 8.63498 16.4887 10.2397 16.4301C12.1428 16.3567 13.7279 15.5694 14.9706 14.122C15.0929 13.9802 15.1761 13.9215 15.3669 13.9997C15.543 14.0731 15.7485 14.078 15.9393 14.0927C16.1105 14.1073 16.2866 14.0975 16.4823 14.0975C16.4823 14.5474 16.4481 14.9826 16.4921 15.413C16.5313 15.8335 16.3649 16.1073 16.0665 16.3812C14.6037 17.7259 12.8962 18.5572 10.9197 18.7675C8.9432 18.9777 7.09389 18.5474 5.38645 17.5205C5.33263 17.4863 5.27393 17.4032 5.27393 17.3445C5.27393 16.3909 5.27393 15.4276 5.27393 14.4252Z" fill="#BCBCBC"/>
<path d="M15.0293 2.73339C14.7651 3.53535 14.5107 4.31285 14.2612 5.07569C12.0645 3.35442 9.65258 3.04635 7.04495 4.1906C7.04006 4.1417 7.03517 4.0928 7.03517 4.0439C7.03517 3.31041 7.03517 2.57202 7.03027 1.83853C7.03027 1.72117 7.06452 1.67227 7.17704 1.63804C9.72108 0.831191 12.1526 1.08058 14.4814 2.3862C14.677 2.49867 14.863 2.6307 15.0293 2.73339Z" fill="#BCBCBC"/>
</svg>
