<svg width="12" height="12" viewBox="0 0 12 12" fill="none" xmlns="http://www.w3.org/2000/svg">
<path d="M3.99996 8.1051L3.99997 3.8951C3.99972 3.72889 4.04656 3.56601 4.13504 3.42532C4.22353 3.28462 4.35005 3.17187 4.49996 3.1001C4.67784 3.01608 4.87573 2.98372 5.0711 3.0067C5.26647 3.02969 5.45145 3.10709 5.60496 3.2301L8.15496 5.3351C8.25028 5.4177 8.32672 5.51984 8.37911 5.63457C8.4315 5.74931 8.45862 5.87396 8.45862 6.0001C8.45862 6.12623 8.4315 6.25088 8.37911 6.36562C8.32672 6.48036 8.25028 6.58249 8.15496 6.6651L5.60496 8.7701C5.45145 8.8931 5.26647 8.9705 5.0711 8.99349C4.87573 9.01647 4.67784 8.98411 4.49996 8.9001C4.35005 8.82833 4.22353 8.71557 4.13504 8.57487C4.04656 8.43418 3.99972 8.2713 3.99996 8.1051Z" fill="#94004A"/>
</svg>
