<svg width="22" height="20" viewBox="0 0 22 20" fill="none" xmlns="http://www.w3.org/2000/svg">
<path d="M12.8168 0.176766C16.5783 0.242757 19.985 3.21234 20.5625 6.91608C20.6285 7.35327 20.6697 7.79046 20.6862 8.2359C20.7027 8.73083 20.414 9.06078 19.9768 9.06903C19.5314 9.08553 19.2179 8.75557 19.2097 8.25239C19.1519 6.09119 18.2693 4.34244 16.57 3.01437C15.4399 2.13174 14.1366 1.69456 12.7096 1.65331C12.5611 1.64506 12.3961 1.63681 12.2559 1.58732C11.9342 1.47184 11.7444 1.14188 11.7939 0.803679C11.8352 0.481973 12.0991 0.21801 12.4291 0.176766C12.5528 0.160268 12.6848 0.176766 12.8168 0.176766Z" fill="#94004A"/>
<path d="M12.7178 3.62478C15.143 3.68252 17.1969 5.76123 17.2382 8.18639C17.2464 8.72257 16.9907 9.04427 16.5453 9.06902C16.0916 9.09377 15.7864 8.77206 15.7534 8.23589C15.6709 6.62736 14.6068 5.42303 13.0313 5.14257C12.924 5.12607 12.8085 5.11782 12.6931 5.10957C12.0991 5.08482 11.7692 4.80436 11.7857 4.32593C11.7939 3.86399 12.1321 3.60828 12.7178 3.62478Z" fill="#94004A"/>
<path d="M16.7423 18.5324C15.5214 18.4994 14.3996 18.1035 13.319 17.5755C10.7783 16.3464 8.65013 14.5729 6.76115 12.5025C5.21861 10.8115 3.89879 8.97197 3.04091 6.82727C2.69446 5.95289 2.42225 5.05377 2.46349 4.10515C2.47999 3.79994 2.54598 3.49473 2.63672 3.20602C2.7522 2.82658 2.99142 2.53787 3.37087 2.37289C4.03077 2.09243 4.69893 1.81197 5.35884 1.53151C5.60631 1.42427 5.81253 1.50676 5.94451 1.72948C6.50543 2.68635 7.06635 3.65146 7.61078 4.61658C7.77575 4.90529 7.69327 5.12801 7.37156 5.30123C6.72815 5.66418 6.24972 6.17561 6.03525 6.89326C5.76303 7.79239 5.90326 8.62552 6.47244 9.37617C7.61078 10.8857 8.90585 12.255 10.3411 13.4841C10.7453 13.8305 11.166 14.1688 11.5867 14.4905C12.956 15.5381 14.746 15.1916 15.6452 13.7233C15.9421 13.2366 16.0906 13.2036 16.5938 13.4923C17.4517 13.9873 18.3095 14.474 19.1592 14.9689C19.5469 15.1916 19.6046 15.3401 19.4396 15.7525C19.2252 16.2722 18.986 16.7919 18.7962 17.3198C18.491 18.1529 17.8476 18.4664 17.031 18.5159C16.9237 18.5406 16.833 18.5324 16.7423 18.5324Z" fill="#94004A"/>
<path d="M16.7762 20C15.3657 19.9753 14.0624 19.5546 12.8085 18.9606C10.0287 17.6408 7.7025 15.7271 5.64854 13.4752C4.00702 11.6769 2.61296 9.71368 1.68909 7.44524C1.24365 6.34815 0.930193 5.2263 0.979686 4.03022C0.996184 3.63427 1.06217 3.23008 1.17766 2.85063C1.42512 2.04224 1.91181 1.39883 2.7037 1.05238C3.43784 0.730676 4.17199 0.400721 4.92264 0.12026C5.77227 -0.193196 6.68789 0.12026 7.15808 0.895653C7.76849 1.90201 8.37066 2.92487 8.93983 3.96423C9.42651 4.8551 9.12955 5.92745 8.27992 6.48838C8.22218 6.52962 8.15619 6.56262 8.09845 6.60386C7.31481 7.07404 7.16633 7.84119 7.719 8.55884C9.09656 10.3488 10.6803 11.9326 12.4703 13.3019C13.1715 13.8381 13.9634 13.6896 14.4088 12.9225C14.8708 12.1306 15.5389 11.7429 16.4628 11.8666C16.7102 11.8996 16.9577 12.0069 17.1804 12.1223C18.1208 12.6503 19.0612 13.1864 19.9933 13.7391C20.9337 14.2918 21.2554 15.2157 20.8594 16.222C20.6367 16.7994 20.381 17.3604 20.1583 17.9295C19.5891 19.3483 18.4673 19.9258 17.0155 20C16.9165 20 16.8422 20 16.7762 20ZM16.7432 18.5152C16.834 18.5152 16.933 18.5235 17.0237 18.5152C17.8486 18.4575 18.4838 18.1523 18.789 17.3191C18.9787 16.7912 19.2262 16.2798 19.4324 15.7518C19.5973 15.3394 19.5479 15.1992 19.1519 14.9682C18.294 14.4733 17.4361 13.9783 16.5865 13.4917C16.0833 13.2029 15.9349 13.2359 15.6379 13.7226C14.7388 15.1909 12.9488 15.5291 11.5795 14.4898C11.1505 14.1681 10.7381 13.8299 10.3339 13.4834C8.89859 12.2543 7.60352 10.885 6.46517 9.37547C5.896 8.62483 5.76402 7.79169 6.02798 6.89257C6.24245 6.17492 6.71264 5.66349 7.3643 5.30054C7.686 5.11907 7.76849 4.89635 7.60352 4.61589C7.05909 3.65077 6.49817 2.68565 5.93725 1.72879C5.80527 1.50607 5.60729 1.42358 5.35158 1.53081C4.68342 1.81128 4.02351 2.09174 3.3636 2.3722C2.99241 2.52893 2.74494 2.81764 2.62946 3.20533C2.54697 3.50229 2.47273 3.8075 2.45623 4.10446C2.41499 5.06132 2.6872 5.9522 3.03365 6.82658C3.89153 8.96303 5.21135 10.8108 6.75388 12.5018C8.64287 14.5723 10.7711 16.3375 13.3117 17.5748C14.3923 18.0863 15.5224 18.4822 16.7432 18.5152Z" fill="#94004A"/>
</svg>
